<svg id="unTill-Black" xmlns="http://www.w3.org/2000/svg" width="140.935" height="41.824"
    viewBox="0 0 140.935 41.824">
    <path id="Path_27" data-name="Path 27"
        d="M132.409,31.92V48.966a.155.155,0,0,1-.155.155H127.28a.155.155,0,0,1-.155-.155v-2.2a5.821,5.821,0,0,1-2.2,1.865,6.678,6.678,0,0,1-3.043.687,6.974,6.974,0,0,1-3.479-.887,6.1,6.1,0,0,1-2.361-2.587,8.738,8.738,0,0,1-.832-3.931V31.93a.25.25,0,0,1,0-.06.181.181,0,0,1,.035-.05.165.165,0,0,1,.05-.03h5.089a.12.12,0,0,1,.05.03.115.115,0,0,1,.035.05.126.126,0,0,1,0,.06v9.275a3.835,3.835,0,0,0,.917,2.717,3.439,3.439,0,0,0,4.868,0,3.815,3.815,0,0,0,.9-2.712V31.92a.251.251,0,0,1,0-.06.18.18,0,0,1,.035-.05.166.166,0,0,1,.05-.03h5.034a.16.16,0,0,1,.09.05A.185.185,0,0,1,132.409,31.92Z"
        transform="translate(-57.443 -15.841)" />
    <path id="Path_28" data-name="Path 28"
        d="M167.7,31.414a6.182,6.182,0,0,1,4.833,2.005,7.649,7.649,0,0,1,1.835,5.42v9.977a.136.136,0,0,1,0,.06.115.115,0,0,1-.035.05.155.155,0,0,1-.045.035H169.2l-.05-.035a.181.181,0,0,1-.035-.05.25.25,0,0,1,0-.06V39.521a3.8,3.8,0,0,0-.9-2.707,3.509,3.509,0,0,0-4.833,0,3.83,3.83,0,0,0-.9,2.707V48.8a.251.251,0,0,1,0,.06.18.18,0,0,1-.035.05l-.05.035H157.3a.155.155,0,0,1-.045-.035.115.115,0,0,1-.035-.05.135.135,0,0,1,0-.06V31.75a.135.135,0,0,1,0-.06.115.115,0,0,1,.035-.05.121.121,0,0,1,.05-.03.1.1,0,0,1,.055,0h4.973a.125.125,0,0,1,.06,0,.166.166,0,0,1,.05.03.18.18,0,0,1,.035.05.248.248,0,0,1,0,.06v2.161a5.565,5.565,0,0,1,2.151-1.81A6.808,6.808,0,0,1,167.7,31.414Z"
        transform="translate(-78.391 -15.656)" />
    <path id="Path_29" data-name="Path 29"
        d="M210.815,22.205v3.956a.135.135,0,0,1-.045.105.145.145,0,0,1-.11.045h-5.63V44.129a.155.155,0,0,1-.045.11.145.145,0,0,1-.11.045H199.9a.135.135,0,0,1-.105-.045.155.155,0,0,1-.045-.11V26.311h-5.6a.155.155,0,0,1-.15-.15V22.205a.155.155,0,0,1,.045-.11.135.135,0,0,1,.105-.045h16.544a.175.175,0,0,1,.1.05A.155.155,0,0,1,210.815,22.205Z"
        transform="translate(-96.735 -10.989)" />
    <path id="Path_30" data-name="Path 30"
        d="M238.85,24.384V41.43a.155.155,0,0,1-.155.155h-4.973a.155.155,0,0,1-.155-.155V24.384a.135.135,0,0,1,0-.06.105.105,0,0,1,.03-.05.165.165,0,0,1,.05-.03.125.125,0,0,1,.06,0h4.973a.125.125,0,0,1,.06,0l.05.03a.105.105,0,0,1,.03.05.135.135,0,0,1,.03.06Zm-2.637-1.96a3.279,3.279,0,0,1-2.291-.807,2.932,2.932,0,0,1-.662-3.179,2.662,2.662,0,0,1,.662-.933,3.239,3.239,0,0,1,2.291-.837,3.1,3.1,0,0,1,2.231.837,2.647,2.647,0,0,1,.9,2.056,2.692,2.692,0,0,1-.226,1.123,2.647,2.647,0,0,1-.672.933A3.118,3.118,0,0,1,236.212,22.423Z"
        transform="translate(-116.206 -8.304)" />
    <path id="Path_31" data-name="Path 31"
        d="M257.619,20.605V43.332a.135.135,0,0,1,0,.06.166.166,0,0,1-.03.05l-.05.035h-5.034a.145.145,0,0,1-.11-.045.155.155,0,0,1-.045-.11V20.605a.135.135,0,0,1,.045-.105.15.15,0,0,1,.11-.05h5.034a.151.151,0,0,1,.05.035.12.12,0,0,1,.03.05A.1.1,0,0,1,257.619,20.605Z"
        transform="translate(-125.831 -10.191)" />
    <path id="Path_32" data-name="Path 32"
        d="M275.829,20.616V43.342a.258.258,0,0,1,0,.06.181.181,0,0,1-.035.05l-.05.035h-5.129l-.05-.035a.105.105,0,0,1-.03-.05.085.085,0,0,1,0-.06V20.616a.07.07,0,0,1,0-.055.085.085,0,0,1,.03-.05.115.115,0,0,1,.05-.035.1.1,0,0,1,.055,0h5.013a.105.105,0,0,1,.06,0,.116.116,0,0,1,.05.035.131.131,0,0,1,.035.05A.182.182,0,0,1,275.829,20.616Z"
        transform="translate(-134.896 -10.202)" />
    <path id="Path_33" data-name="Path 33"
        d="M45.278,12.5V39.849a4.166,4.166,0,0,1-4.171,4.176H11.878a4.151,4.151,0,0,1-2.6-.912L1.56,36.937A4.2,4.2,0,0,1,0,33.673V4.981a.466.466,0,0,1,.06-.3.509.509,0,0,1,.516-.251.5.5,0,0,1,.266.14l8.814,7.019a2.118,2.118,0,0,1,.787,1.644V32.525a2.091,2.091,0,0,0,.612,1.5,2.116,2.116,0,0,0,1.479.592H33.842a2.1,2.1,0,0,0,2.086-2.1V12.5a.551.551,0,0,1,.04-.2.5.5,0,0,1,.125-.165.541.541,0,0,1,.17-.105.431.431,0,0,1,.2-.03h8.322a.5.5,0,0,1,.5.5Z"
        transform="translate(0.008 -2.202)" />
    <path id="Path_34" data-name="Path 34"
        d="M45.678,8.457H29.264a.5.5,0,0,0-.5.5V23.241a1.063,1.063,0,0,1-.306.742,1.043,1.043,0,0,1-.737.306h-7.29a1,1,0,0,1-.4-.08,1.093,1.093,0,0,1-.341-.226,1.063,1.063,0,0,1-.226-.341,1.078,1.078,0,0,1-.08-.4V8.978a.5.5,0,0,0-.5-.5H12.228a2.066,2.066,0,0,1-1.283-.461L2.106.936A.5.5,0,0,1,1.87.681a.526.526,0,0,1,0-.351.5.5,0,0,1,.551-.336h33.44A2.056,2.056,0,0,1,37.155.45l8.884,7.094a.5.5,0,0,1-.361.912Z"
        transform="translate(-0.914 0.012)" />
</svg>